<?xml version="1.0" standalone="no"?>
<!DOCTYPE svg PUBLIC "-//W3C//DTD SVG 20010904//EN"
 "http://www.w3.org/TR/2001/REC-SVG-20010904/DTD/svg10.dtd">
<svg version="1.0" xmlns="http://www.w3.org/2000/svg"
 width="260.000000pt" height="260.000000pt" viewBox="0 0 260.000000 260.000000"
 preserveAspectRatio="xMidYMid meet">
<metadata>
Created by potrace 1.14, written by Peter Selinger 2001-2017
</metadata>
<g transform="translate(0.000000,260.000000) scale(0.100000,-0.100000)"
fill="#000000" stroke="none">
<path d="M445 2584 c-204 -50 -368 -209 -425 -415 -20 -72 -20 -92 -18 -889
l3 -815 27 -74 c66 -182 205 -313 386 -367 l77 -23 820 2 820 2 74 27 c181 66
314 206 367 386 l23 77 -2 820 -2 820 -27 74 c-69 189 -219 325 -413 375 -87
22 -1618 22 -1710 0z"/>
</g>
</svg>
